<?xml version="1.0" encoding="UTF-8" standalone="no"?>
<!-- Created with Inkscape (http://www.inkscape.org/) -->

<svg
   xmlns:dc="http://purl.org/dc/elements/1.1/"
   xmlns:cc="http://creativecommons.org/ns#"
   xmlns:rdf="http://www.w3.org/1999/02/22-rdf-syntax-ns#"
   xmlns:svg="http://www.w3.org/2000/svg"
   xmlns="http://www.w3.org/2000/svg"
   xmlns:sodipodi="http://sodipodi.sourceforge.net/DTD/sodipodi-0.dtd"
   xmlns:inkscape="http://www.inkscape.org/namespaces/inkscape"
   version="1.1"
   id="svg6503"
   width="38.666668"
   height="36"
   viewBox="0 0 38.666668 36"
   sodipodi:docname="accountType-SAVINGS.svg"
   inkscape:version="0.92.1 r15371">
  <metadata
     id="metadata6509">
    <rdf:RDF>
      <cc:Work
         rdf:about="">
        <dc:format>image/svg+xml</dc:format>
        <dc:type
           rdf:resource="http://purl.org/dc/dcmitype/StillImage" />
        <dc:title></dc:title>
      </cc:Work>
    </rdf:RDF>
  </metadata>
  <defs
     id="defs6507" />
  <sodipodi:namedview
     pagecolor="#ffffff"
     bordercolor="#666666"
     borderopacity="1"
     objecttolerance="10"
     gridtolerance="10"
     guidetolerance="10"
     inkscape:pageopacity="0"
     inkscape:pageshadow="2"
     inkscape:window-width="3070"
     inkscape:window-height="1752"
     id="namedview6505"
     showgrid="false"
     inkscape:pagecheckerboard="true"
     inkscape:zoom="26.222222"
     inkscape:cx="22.723592"
     inkscape:cy="27.8841"
     inkscape:window-x="130"
     inkscape:window-y="48"
     inkscape:window-maximized="1"
     inkscape:current-layer="svg6503"
     showguides="false" />
  <path
     style="opacity:1;fill:#000000;fill-opacity:1;stroke:none;stroke-width:1.90101969;stroke-linejoin:round;stroke-miterlimit:4;stroke-dasharray:none;stroke-opacity:1"
     d="m 19.792969,8.8183594 c -0.35748,0.00305 -0.714612,0.019343 -1.070313,0.048828 0.213501,0.603196 0.605138,1.1205625 1.134766,1.4609375 0.07976,0.0515 0.04961,0.174742 -0.04492,0.183594 -0.555523,0.05107 -1.080003,0.132172 -1.570312,0.242187 -0.03619,0.0079 -0.07376,-0.0049 -0.09766,-0.0332 -0.41018,-0.476885 -0.708352,-1.0462875 -0.884765,-1.6660155 -5.473887,0.9802705 -9.3802476,4.9670995 -9.3867191,9.5800785 7.701e-4,5.420632 5.3373131,9.814558 11.9199221,9.814453 6.582609,1.05e-4 11.919152,-4.393821 11.919922,-9.814453 -0.0057,-3.681222 -2.512163,-7.05036 -6.492188,-8.7265629 -0.177198,0.3312689 -0.380602,0.6472369 -0.632812,0.9218749 -0.02514,0.02759 -0.06354,0.03888 -0.09961,0.0293 -0.483909,-0.131392 -1.015069,-0.22837 -1.576172,-0.298828 -0.09127,-0.01464 -0.115533,-0.134656 -0.03711,-0.183594 0.398298,-0.236149 0.728511,-0.567973 0.972656,-0.9589842 -1.299059,-0.3921406 -2.671108,-0.59504 -4.054687,-0.5996094 z m -1.263672,0.066406 c -0.359029,0.030902 -0.716168,0.075218 -1.070313,0.1328125 0.166734,0.5654232 0.439897,1.0860789 0.8125,1.5292969 0.420225,-0.09145 0.869028,-0.155747 1.333985,-0.205078 C 19.113067,9.9748025 18.739501,9.4692051 18.529297,8.8847656 Z m 5.484375,0.5820313 c -0.232273,0.3641283 -0.529523,0.6849211 -0.886719,0.9316411 0.469548,0.06499 0.923608,0.144031 1.341797,0.253906 0.22191,-0.247428 0.404278,-0.527331 0.564453,-0.8203128 C 24.700443,9.6972937 24.36023,9.5754164 24.013672,9.4667969 Z m -2.892578,1.2128911 c 1.573197,0 2.996834,0.243319 4.117187,0.65625 l -0.362254,0.411778 c -0.955216,-0.348372 -2.264062,-0.580078 -3.716797,-0.580078 -1.154201,0 -2.225101,0.143336 -3.095703,0.376953 l -0.338918,-0.446935 c 0.986436,-0.268304 2.146808,-0.417968 3.396485,-0.417968 z m -8.257813,3.544921 c 0.864122,-2.37e-4 1.56469,0.700331 1.564453,1.564453 2.37e-4,0.864122 -0.700331,1.564691 -1.564453,1.564454 -0.864122,2.37e-4 -1.56469,-0.700332 -1.564453,-1.564454 -2.37e-4,-0.864122 0.700331,-1.56469 1.564453,-1.564453 z"
     id="path7056"
     inkscape:connector-curvature="0"
     sodipodi:nodetypes="cccccccccccccccccccccccccccsccsccscccac" />
  <path
     style="opacity:1;fill:#000000;fill-opacity:1;stroke:none;stroke-width:1.98289073;stroke-linejoin:round;stroke-miterlimit:4;stroke-dasharray:none;stroke-opacity:1"
     d="m 6.2021648,16.045208 2.695615,-0.161796 c 0.508686,-0.889875 0.39861,0.194697 0.431455,0.431455 l 0.647183,4.665106 c 0,0 -0.193365,0.452582 -0.431455,0.431455 l -3.342798,-0.296625 c -0.23809,-0.02113 -0.431455,-0.192428 -0.431455,-0.431455 v -4.206685 c 0,-0.239026 0.192858,-0.417134 0.431455,-0.431455 z"
     id="rect7060"
     inkscape:connector-curvature="0"
     sodipodi:nodetypes="scscsssss" />
  <path
     style="opacity:1;fill:#000000;fill-opacity:1;stroke:none;stroke-width:1.98289073;stroke-linejoin:round;stroke-miterlimit:4;stroke-dasharray:none;stroke-opacity:1"
     d="m 12.337406,25.456319 5.58097,2.076377 c 0.224024,0.08335 0.498765,0.202102 0.431455,0.431455 l -0.72808,2.480866 c -0.06731,0.229353 -0.192429,0.431455 -0.431455,0.431455 h -4.502333 c -0.239027,0 -0.413123,-0.193133 -0.431455,-0.431455 l -0.350557,-4.557243 c -0.01833,-0.238322 0.20743,-0.514803 0.431455,-0.431455 z"
     id="rect7060-2"
     inkscape:connector-curvature="0"
     sodipodi:nodetypes="sssssssss" />
  <path
     style="opacity:1;fill:#000000;fill-opacity:1;stroke:none;stroke-width:1.98289073;stroke-linejoin:round;stroke-miterlimit:4;stroke-dasharray:none;stroke-opacity:1"
     d="m 21.883347,26.292261 7.738245,-3.155014 c 0.221336,-0.09024 0.713238,0.03584 0.498192,0.34565 l -0.501648,0.722699 c -1.597908,2.302025 -1.887827,6.724806 -2.126853,6.724806 H 22.98895 c -0.239026,0 -0.364276,-0.202064 -0.431455,-0.431455 l -1.105603,-3.775231 c -0.06718,-0.229391 0.210118,-0.341212 0.431455,-0.431455 z"
     id="rect7060-9"
     inkscape:connector-curvature="0"
     sodipodi:nodetypes="sssssssss" />
  <path
     style="fill:#000000;stroke:#000000;stroke-width:1px;stroke-linecap:butt;stroke-linejoin:round;stroke-opacity:1"
     d="M 11.527938,13.456477 C 11.595358,9.4790013 9.7886348,8.1711534 9.7886348,8.1711534 c 0,0 6.5122742,-2.4404173 7.7931562,4.1797206 -2.341999,0.346832 -6.053853,1.105603 -6.053853,1.105603 z"
     id="path7119"
     inkscape:connector-curvature="0"
     sodipodi:nodetypes="cccc" />
  <path
     style="color:#000000;font-style:normal;font-variant:normal;font-weight:normal;font-stretch:normal;font-size:medium;line-height:normal;font-family:sans-serif;font-variant-ligatures:normal;font-variant-position:normal;font-variant-caps:normal;font-variant-numeric:normal;font-variant-alternates:normal;font-feature-settings:normal;text-indent:0;text-align:start;text-decoration:none;text-decoration-line:none;text-decoration-style:solid;text-decoration-color:#000000;letter-spacing:normal;word-spacing:normal;text-transform:none;writing-mode:lr-tb;direction:ltr;text-orientation:mixed;dominant-baseline:auto;baseline-shift:baseline;text-anchor:start;white-space:normal;shape-padding:0;clip-rule:nonzero;display:inline;overflow:visible;visibility:visible;opacity:1;isolation:auto;mix-blend-mode:normal;color-interpolation:sRGB;color-interpolation-filters:linearRGB;solid-color:#000000;solid-opacity:1;vector-effect:none;fill:#000000;fill-opacity:1;fill-rule:nonzero;stroke:#c8c8c8;stroke-width:0;stroke-linecap:butt;stroke-linejoin:round;stroke-miterlimit:4;stroke-dasharray:none;stroke-dashoffset:0;stroke-opacity:1;color-rendering:auto;image-rendering:auto;shape-rendering:auto;text-rendering:auto;enable-background:accumulate"
     d="m 21.410661,3.6861593 c -2.328136,0 -4.228516,1.90038 -4.228516,4.2285156 0,1.0491298 0.400054,1.9995898 1.037109,2.7402341 0.494962,-0.111058 1.024583,-0.192711 1.583985,-0.24414 -0.82015,-0.5270833 -1.363281,-1.4426834 -1.363281,-2.4960941 0,-1.6482619 1.322441,-2.970703 2.970703,-2.970703 1.648262,0 2.970703,1.3224411 2.970703,2.970703 0,1.0917268 -0.586297,2.0306248 -1.457031,2.5468751 0.564523,0.07089 1.100001,0.167778 1.589843,0.300781 0.691906,-0.753435 1.125,-1.7487675 1.125,-2.8476561 0,-2.3281356 -1.90038,-4.2285156 -4.228515,-4.2285156 z"
     id="path7121"
     inkscape:connector-curvature="0"
     sodipodi:nodetypes="ssccsssccss" />
</svg>
