<?xml version="1.0" encoding="UTF-8" standalone="no"?>
<!-- Created with Inkscape (http://www.inkscape.org/) -->

<svg
   xmlns:dc="http://purl.org/dc/elements/1.1/"
   xmlns:cc="http://creativecommons.org/ns#"
   xmlns:rdf="http://www.w3.org/1999/02/22-rdf-syntax-ns#"
   xmlns:svg="http://www.w3.org/2000/svg"
   xmlns="http://www.w3.org/2000/svg"
   xmlns:xlink="http://www.w3.org/1999/xlink"
   xmlns:sodipodi="http://sodipodi.sourceforge.net/DTD/sodipodi-0.dtd"
   xmlns:inkscape="http://www.inkscape.org/namespaces/inkscape"
   width="27.89287mm"
   height="18.44541mm"
   viewBox="0 0 27.89287 18.44541"
   version="1.1"
   id="svg8"
   sodipodi:docname="moola.svg"
   inkscape:version="0.92.1 r15371">
  <defs
     id="defs2">
    <linearGradient
       id="linearGradient4930"
       inkscape:collect="always">
      <stop
         id="stop4926"
         offset="0"
         style="stop-color:#666666;stop-opacity:1" />
      <stop
         id="stop4928"
         offset="1"
         style="stop-color:#353535;stop-opacity:1" />
    </linearGradient>
    <linearGradient
       id="linearGradient4924"
       inkscape:collect="always">
      <stop
         id="stop4920"
         offset="0"
         style="stop-color:#666666;stop-opacity:1" />
      <stop
         id="stop4922"
         offset="1"
         style="stop-color:#353535;stop-opacity:1" />
    </linearGradient>
    <linearGradient
       inkscape:collect="always"
       id="linearGradient4912">
      <stop
         style="stop-color:#666666;stop-opacity:1"
         offset="0"
         id="stop4908" />
      <stop
         style="stop-color:#353535;stop-opacity:1"
         offset="1"
         id="stop4910" />
    </linearGradient>
    <linearGradient
       inkscape:collect="always"
       xlink:href="#linearGradient4912"
       id="linearGradient4914"
       x1="42.796532"
       y1="110.27882"
       x2="42.796532"
       y2="114.4215"
       gradientUnits="userSpaceOnUse" />
    <linearGradient
       inkscape:collect="always"
       xlink:href="#linearGradient4930"
       id="linearGradient4916"
       x1="42.796532"
       y1="110.27882"
       x2="42.796532"
       y2="114.4215"
       gradientUnits="userSpaceOnUse" />
    <linearGradient
       inkscape:collect="always"
       xlink:href="#linearGradient4924"
       id="linearGradient4918"
       x1="42.796532"
       y1="110.27882"
       x2="42.796532"
       y2="114.4215"
       gradientUnits="userSpaceOnUse" />
    <linearGradient
       inkscape:collect="always"
       xlink:href="#linearGradient4924"
       id="linearGradient5006"
       gradientUnits="userSpaceOnUse"
       x1="42.796532"
       y1="110.27882"
       x2="42.796532"
       y2="114.4215" />
    <linearGradient
       inkscape:collect="always"
       xlink:href="#linearGradient4930"
       id="linearGradient5008"
       gradientUnits="userSpaceOnUse"
       x1="42.796532"
       y1="110.27882"
       x2="42.796532"
       y2="114.4215" />
    <linearGradient
       inkscape:collect="always"
       xlink:href="#linearGradient4912"
       id="linearGradient5010"
       gradientUnits="userSpaceOnUse"
       x1="42.796532"
       y1="110.27882"
       x2="42.796532"
       y2="114.4215" />
  </defs>
  <sodipodi:namedview
     id="base"
     pagecolor="#ffffff"
     bordercolor="#666666"
     borderopacity="1.0"
     inkscape:pageopacity="0.0"
     inkscape:pageshadow="2"
     inkscape:zoom="1.4"
     inkscape:cx="-74.657625"
     inkscape:cy="70.008079"
     inkscape:document-units="mm"
     inkscape:current-layer="text12"
     showgrid="false"
     inkscape:window-width="3070"
     inkscape:window-height="1752"
     inkscape:window-x="130"
     inkscape:window-y="48"
     inkscape:window-maximized="1"
     fit-margin-top="0"
     fit-margin-left="0"
     fit-margin-right="0"
     fit-margin-bottom="0" />
  <metadata
     id="metadata5">
    <rdf:RDF>
      <cc:Work
         rdf:about="">
        <dc:format>image/svg+xml</dc:format>
        <dc:type
           rdf:resource="http://purl.org/dc/dcmitype/StillImage" />
        <dc:title></dc:title>
      </cc:Work>
    </rdf:RDF>
  </metadata>
  <g
     inkscape:label="Layer 1"
     inkscape:groupmode="layer"
     id="layer1"
     transform="translate(-28.665654,-101.9112)">
    <g
       aria-label="moola"
       style="font-style:normal;font-weight:normal;font-size:10.58333302px;line-height:1.25;font-family:sans-serif;letter-spacing:0px;word-spacing:0px;fill:#000000;fill-opacity:1;stroke:none;stroke-width:0.26458332"
       id="text12">
      <g
         id="g4962">
        <path
           id="path26"
           style="font-style:normal;font-variant:normal;font-weight:bold;font-stretch:normal;font-size:10.58333302px;font-family:Sawasdee;-inkscape-font-specification:'Sawasdee, Bold';font-variant-ligatures:normal;font-variant-caps:normal;font-variant-numeric:normal;font-feature-settings:normal;text-align:start;writing-mode:lr-tb;text-anchor:start;fill:url(#linearGradient4918);fill-opacity:1;stroke-width:0.26458332"
           d="m 29.719854,110.39936 q 0.237711,-0.45476 0.63562,-0.76482 0.403076,-0.31522 0.795817,-0.31522 0.552938,0 0.914673,0.29455 0.361735,0.28939 0.532267,0.78549 0.289388,-0.47026 0.676961,-0.77515 0.392741,-0.30489 0.780314,-0.30489 0.330729,0 0.604614,0.12402 0.273886,0.11886 0.454753,0.3204 0.180868,0.20153 0.304891,0.48059 0.124023,0.27388 0.1757,0.57877 0.05684,0.29973 0.05684,0.62529 v 3.1781 h -0.806152 v -3.1781 q 0,-0.23771 -0.04134,-0.45476 -0.03617,-0.21704 -0.118855,-0.42374 -0.08268,-0.21188 -0.248047,-0.3359 -0.165365,-0.12919 -0.392741,-0.12919 -0.279053,0 -0.609782,0.3359 -0.325561,0.33073 -0.542602,0.78548 -0.211874,0.44958 -0.211874,0.78548 v 2.61483 h -0.81132 v -3.20394 q 0,-0.23771 -0.03617,-0.45475 -0.03617,-0.21704 -0.124024,-0.42375 -0.08268,-0.21187 -0.253214,-0.3359 -0.165365,-0.12919 -0.392741,-0.12919 -0.258382,0 -0.578776,0.32556 -0.320394,0.3204 -0.542603,0.78032 -0.222208,0.45992 -0.222208,0.81649 v 2.62516 h -0.821656 v -3.70003 q 0,-0.39791 -0.06718,-0.8785 -0.06201,-0.48576 -0.165365,-0.6718 h 0.914673 q 0.09302,0.30489 0.113688,0.47543 0.02584,0.16536 0.02584,0.54777 z"
           inkscape:connector-curvature="0" />
        <path
           inkscape:connector-curvature="0"
           id="path28"
           style="font-style:normal;font-variant:normal;font-weight:bold;font-stretch:normal;font-size:10.58333302px;font-family:Sawasdee;-inkscape-font-specification:'Sawasdee, Bold';font-variant-ligatures:normal;font-variant-caps:normal;font-variant-numeric:normal;font-feature-settings:normal;text-align:start;writing-mode:lr-tb;text-anchor:start;fill:#39747c;fill-opacity:1;stroke-width:0.26458332"
           d="m 42.037474,109.44469 q 0.377238,0.62012 0.377238,1.35393 0,0.7338 -0.377238,1.35392 -0.377238,0.62011 -1.023193,0.98185 -0.645956,0.35657 -1.405599,0.35657 -0.764812,0 -1.415935,-0.35657 -0.645955,-0.36174 -1.023193,-0.98185 -0.377238,-0.62012 -0.377238,-1.35392 0,-0.73381 0.377238,-1.35393 0.377238,-0.62528 1.023193,-0.98185 0.651123,-0.36173 1.415935,-0.36173 0.759643,0 1.405599,0.36173 0.645955,0.35657 1.023193,0.98185 z m -4.418335,1.35393 q 0,0.80098 0.583944,1.35909 0.583943,0.5581 1.415934,0.5581 0.83199,0 1.421102,-0.5581 0.589111,-0.56328 0.589111,-1.35909 0,-0.79065 -0.589111,-1.34876 -0.589112,-0.56327 -1.421102,-0.56327 -0.831991,0 -1.415934,0.56327 -0.583944,0.55811 -0.583944,1.34876 z" />
        <path
           inkscape:connector-curvature="0"
           id="path30"
           style="font-style:normal;font-variant:normal;font-weight:bold;font-stretch:normal;font-size:10.58333302px;font-family:Sawasdee;-inkscape-font-specification:'Sawasdee, Bold';font-variant-ligatures:normal;font-variant-caps:normal;font-variant-numeric:normal;font-feature-settings:normal;text-align:start;writing-mode:lr-tb;text-anchor:start;fill:#39747c;fill-opacity:1;stroke-width:0.26458332"
           d="m 48.143561,109.44469 q 0.377238,0.62012 0.377238,1.35393 0,0.7338 -0.377238,1.35392 -0.377238,0.62011 -1.023194,0.98185 -0.645955,0.35657 -1.405598,0.35657 -0.764812,0 -1.415935,-0.35657 -0.645955,-0.36174 -1.023193,-0.98185 -0.377238,-0.62012 -0.377238,-1.35392 0,-0.73381 0.377238,-1.35393 0.377238,-0.62528 1.023193,-0.98185 0.651123,-0.36173 1.415935,-0.36173 0.759643,0 1.405598,0.36173 0.645956,0.35657 1.023194,0.98185 z m -4.418335,1.35393 q 0,0.80098 0.583944,1.35909 0.583943,0.5581 1.415934,0.5581 0.83199,0 1.421102,-0.5581 0.589111,-0.56328 0.589111,-1.35909 0,-0.79065 -0.589111,-1.34876 -0.589112,-0.56327 -1.421102,-0.56327 -0.831991,0 -1.415934,0.56327 -0.583944,0.55811 -0.583944,1.34876 z" />
        <path
           inkscape:connector-curvature="0"
           id="path32"
           style="font-style:normal;font-variant:normal;font-weight:bold;font-stretch:normal;font-size:10.58333302px;font-family:Sawasdee;-inkscape-font-specification:'Sawasdee, Bold';font-variant-ligatures:normal;font-variant-caps:normal;font-variant-numeric:normal;font-feature-settings:normal;text-align:start;writing-mode:lr-tb;text-anchor:start;fill:url(#linearGradient4916);fill-opacity:1;stroke-width:0.26458332"
           d="m 50.688081,114.62649 h -0.821655 v -7.71529 h 0.821655 z" />
        <path
           inkscape:connector-curvature="0"
           id="path34"
           style="font-style:normal;font-variant:normal;font-weight:bold;font-stretch:normal;font-size:10.58333302px;font-family:Sawasdee;-inkscape-font-specification:'Sawasdee, Bold';font-variant-ligatures:normal;font-variant-caps:normal;font-variant-numeric:normal;font-feature-settings:normal;text-align:start;writing-mode:lr-tb;text-anchor:start;fill:url(#linearGradient4914);fill-opacity:1;stroke-width:0.26458332"
           d="m 56.558524,114.62649 h -0.899169 q -0.149862,-0.34107 -0.149862,-0.7183 -0.806152,0.80615 -1.767334,0.80615 -0.454753,0 -0.81132,-0.13953 -0.356567,-0.13953 -0.568441,-0.3669 -0.206705,-0.22738 -0.315226,-0.48576 -0.103353,-0.26355 -0.103353,-0.53227 0,-0.27905 0.08785,-0.50643 0.08785,-0.23254 0.222209,-0.3979 0.134359,-0.17054 0.356567,-0.29973 0.222209,-0.13436 0.423747,-0.21704 0.206706,-0.0827 0.501261,-0.14469 0.299724,-0.062 0.511597,-0.0878 0.217041,-0.031 0.532267,-0.0465 0.315226,-0.0155 0.480591,-0.0155 0.165365,-0.005 0.434082,-0.005 -0.07235,-0.64596 -0.475423,-1.0232 -0.397909,-0.37723 -0.89917,-0.37723 -0.124023,0 -0.237712,0.0207 -0.113688,0.0207 -0.211873,0.062 -0.09819,0.0413 -0.180868,0.0827 -0.08268,0.0413 -0.165364,0.10852 -0.07751,0.0672 -0.134359,0.11369 -0.05168,0.0413 -0.113688,0.11886 -0.06201,0.0723 -0.08785,0.10852 -0.02584,0.031 -0.07235,0.093 -0.04651,0.062 -0.04651,0.0672 l -0.671793,-0.41341 q 0.09302,-0.13952 0.155029,-0.22221 0.06718,-0.0827 0.258382,-0.27905 0.196371,-0.19637 0.382406,-0.31523 0.191203,-0.11885 0.496093,-0.21704 0.304891,-0.10335 0.630453,-0.10335 0.418579,0 0.81132,0.1602 0.397908,0.16019 0.707967,0.44958 0.310059,0.28939 0.496094,0.74414 0.191203,0.45476 0.191203,0.99736 v 1.73116 q 0,0.3514 0.06718,0.70797 0.06718,0.35139 0.165364,0.5426 z m -2.816365,-0.69247 q 0.506429,0 1.002523,-0.32556 0.496093,-0.32556 0.764811,-0.76998 v -0.69763 q -0.434082,0.005 -0.780314,0.031 -0.341065,0.0258 -0.728638,0.093 -0.387573,0.0672 -0.645955,0.1757 -0.258382,0.10853 -0.428915,0.29973 -0.170532,0.1912 -0.170532,0.44958 0,0.26872 0.248047,0.50643 0.248047,0.23771 0.738973,0.23771 z" />
      </g>
      <g
         id="g4998"
         transform="matrix(1,0,0,-0.72970255,0,198.36999)"
         style="opacity:0.14500002">
        <path
           d="m 29.719854,110.39936 q 0.237711,-0.45476 0.63562,-0.76482 0.403076,-0.31522 0.795817,-0.31522 0.552938,0 0.914673,0.29455 0.361735,0.28939 0.532267,0.78549 0.289388,-0.47026 0.676961,-0.77515 0.392741,-0.30489 0.780314,-0.30489 0.330729,0 0.604614,0.12402 0.273886,0.11886 0.454753,0.3204 0.180868,0.20153 0.304891,0.48059 0.124023,0.27388 0.1757,0.57877 0.05684,0.29973 0.05684,0.62529 v 3.1781 h -0.806152 v -3.1781 q 0,-0.23771 -0.04134,-0.45476 -0.03617,-0.21704 -0.118855,-0.42374 -0.08268,-0.21188 -0.248047,-0.3359 -0.165365,-0.12919 -0.392741,-0.12919 -0.279053,0 -0.609782,0.3359 -0.325561,0.33073 -0.542602,0.78548 -0.211874,0.44958 -0.211874,0.78548 v 2.61483 h -0.81132 v -3.20394 q 0,-0.23771 -0.03617,-0.45475 -0.03617,-0.21704 -0.124024,-0.42375 -0.08268,-0.21187 -0.253214,-0.3359 -0.165365,-0.12919 -0.392741,-0.12919 -0.258382,0 -0.578776,0.32556 -0.320394,0.3204 -0.542603,0.78032 -0.222208,0.45992 -0.222208,0.81649 v 2.62516 h -0.821656 v -3.70003 q 0,-0.39791 -0.06718,-0.8785 -0.06201,-0.48576 -0.165365,-0.6718 h 0.914673 q 0.09302,0.30489 0.113688,0.47543 0.02584,0.16536 0.02584,0.54777 z"
           style="font-style:normal;font-variant:normal;font-weight:bold;font-stretch:normal;font-size:10.58333302px;font-family:Sawasdee;-inkscape-font-specification:'Sawasdee, Bold';font-variant-ligatures:normal;font-variant-caps:normal;font-variant-numeric:normal;font-feature-settings:normal;text-align:start;writing-mode:lr-tb;text-anchor:start;fill:url(#linearGradient5006);fill-opacity:1;stroke-width:0.26458332"
           id="path4988"
           inkscape:connector-curvature="0" />
        <path
           d="m 42.037474,109.44469 q 0.377238,0.62012 0.377238,1.35393 0,0.7338 -0.377238,1.35392 -0.377238,0.62011 -1.023193,0.98185 -0.645956,0.35657 -1.405599,0.35657 -0.764812,0 -1.415935,-0.35657 -0.645955,-0.36174 -1.023193,-0.98185 -0.377238,-0.62012 -0.377238,-1.35392 0,-0.73381 0.377238,-1.35393 0.377238,-0.62528 1.023193,-0.98185 0.651123,-0.36173 1.415935,-0.36173 0.759643,0 1.405599,0.36173 0.645955,0.35657 1.023193,0.98185 z m -4.418335,1.35393 q 0,0.80098 0.583944,1.35909 0.583943,0.5581 1.415934,0.5581 0.83199,0 1.421102,-0.5581 0.589111,-0.56328 0.589111,-1.35909 0,-0.79065 -0.589111,-1.34876 -0.589112,-0.56327 -1.421102,-0.56327 -0.831991,0 -1.415934,0.56327 -0.583944,0.55811 -0.583944,1.34876 z"
           style="font-style:normal;font-variant:normal;font-weight:bold;font-stretch:normal;font-size:10.58333302px;font-family:Sawasdee;-inkscape-font-specification:'Sawasdee, Bold';font-variant-ligatures:normal;font-variant-caps:normal;font-variant-numeric:normal;font-feature-settings:normal;text-align:start;writing-mode:lr-tb;text-anchor:start;fill:#39747c;fill-opacity:1;stroke-width:0.26458332"
           id="path4990"
           inkscape:connector-curvature="0" />
        <path
           d="m 48.143561,109.44469 q 0.377238,0.62012 0.377238,1.35393 0,0.7338 -0.377238,1.35392 -0.377238,0.62011 -1.023194,0.98185 -0.645955,0.35657 -1.405598,0.35657 -0.764812,0 -1.415935,-0.35657 -0.645955,-0.36174 -1.023193,-0.98185 -0.377238,-0.62012 -0.377238,-1.35392 0,-0.73381 0.377238,-1.35393 0.377238,-0.62528 1.023193,-0.98185 0.651123,-0.36173 1.415935,-0.36173 0.759643,0 1.405598,0.36173 0.645956,0.35657 1.023194,0.98185 z m -4.418335,1.35393 q 0,0.80098 0.583944,1.35909 0.583943,0.5581 1.415934,0.5581 0.83199,0 1.421102,-0.5581 0.589111,-0.56328 0.589111,-1.35909 0,-0.79065 -0.589111,-1.34876 -0.589112,-0.56327 -1.421102,-0.56327 -0.831991,0 -1.415934,0.56327 -0.583944,0.55811 -0.583944,1.34876 z"
           style="font-style:normal;font-variant:normal;font-weight:bold;font-stretch:normal;font-size:10.58333302px;font-family:Sawasdee;-inkscape-font-specification:'Sawasdee, Bold';font-variant-ligatures:normal;font-variant-caps:normal;font-variant-numeric:normal;font-feature-settings:normal;text-align:start;writing-mode:lr-tb;text-anchor:start;fill:#39747c;fill-opacity:1;stroke-width:0.26458332"
           id="path4992"
           inkscape:connector-curvature="0" />
        <path
           d="m 50.688081,114.62649 h -0.821655 v -7.71529 h 0.821655 z"
           style="font-style:normal;font-variant:normal;font-weight:bold;font-stretch:normal;font-size:10.58333302px;font-family:Sawasdee;-inkscape-font-specification:'Sawasdee, Bold';font-variant-ligatures:normal;font-variant-caps:normal;font-variant-numeric:normal;font-feature-settings:normal;text-align:start;writing-mode:lr-tb;text-anchor:start;fill:url(#linearGradient5008);fill-opacity:1;stroke-width:0.26458332"
           id="path4994"
           inkscape:connector-curvature="0" />
        <path
           d="m 56.558524,114.62649 h -0.899169 q -0.149862,-0.34107 -0.149862,-0.7183 -0.806152,0.80615 -1.767334,0.80615 -0.454753,0 -0.81132,-0.13953 -0.356567,-0.13953 -0.568441,-0.3669 -0.206705,-0.22738 -0.315226,-0.48576 -0.103353,-0.26355 -0.103353,-0.53227 0,-0.27905 0.08785,-0.50643 0.08785,-0.23254 0.222209,-0.3979 0.134359,-0.17054 0.356567,-0.29973 0.222209,-0.13436 0.423747,-0.21704 0.206706,-0.0827 0.501261,-0.14469 0.299724,-0.062 0.511597,-0.0878 0.217041,-0.031 0.532267,-0.0465 0.315226,-0.0155 0.480591,-0.0155 0.165365,-0.005 0.434082,-0.005 -0.07235,-0.64596 -0.475423,-1.0232 -0.397909,-0.37723 -0.89917,-0.37723 -0.124023,0 -0.237712,0.0207 -0.113688,0.0207 -0.211873,0.062 -0.09819,0.0413 -0.180868,0.0827 -0.08268,0.0413 -0.165364,0.10852 -0.07751,0.0672 -0.134359,0.11369 -0.05168,0.0413 -0.113688,0.11886 -0.06201,0.0723 -0.08785,0.10852 -0.02584,0.031 -0.07235,0.093 -0.04651,0.062 -0.04651,0.0672 l -0.671793,-0.41341 q 0.09302,-0.13952 0.155029,-0.22221 0.06718,-0.0827 0.258382,-0.27905 0.196371,-0.19637 0.382406,-0.31523 0.191203,-0.11885 0.496093,-0.21704 0.304891,-0.10335 0.630453,-0.10335 0.418579,0 0.81132,0.1602 0.397908,0.16019 0.707967,0.44958 0.310059,0.28939 0.496094,0.74414 0.191203,0.45476 0.191203,0.99736 v 1.73116 q 0,0.3514 0.06718,0.70797 0.06718,0.35139 0.165364,0.5426 z m -2.816365,-0.69247 q 0.506429,0 1.002523,-0.32556 0.496093,-0.32556 0.764811,-0.76998 v -0.69763 q -0.434082,0.005 -0.780314,0.031 -0.341065,0.0258 -0.728638,0.093 -0.387573,0.0672 -0.645955,0.1757 -0.258382,0.10853 -0.428915,0.29973 -0.170532,0.1912 -0.170532,0.44958 0,0.26872 0.248047,0.50643 0.248047,0.23771 0.738973,0.23771 z"
           style="font-style:normal;font-variant:normal;font-weight:bold;font-stretch:normal;font-size:10.58333302px;font-family:Sawasdee;-inkscape-font-specification:'Sawasdee, Bold';font-variant-ligatures:normal;font-variant-caps:normal;font-variant-numeric:normal;font-feature-settings:normal;text-align:start;writing-mode:lr-tb;text-anchor:start;fill:url(#linearGradient5010);fill-opacity:1;stroke-width:0.26458332"
           id="path4996"
           inkscape:connector-curvature="0" />
      </g>
    </g>
  </g>
</svg>
